<mxfile host="Electron" modified="2024-01-20T01:09:54.458Z" agent="Mozilla/5.0 (Macintosh; Intel Mac OS X 10_15_7) AppleWebKit/537.36 (KHTML, like Gecko) draw.io/22.1.18 Chrome/120.0.6099.199 Electron/28.1.2 Safari/537.36" etag="CpR9utG3-7f5JLzlTCoS" version="22.1.18" type="device">
  <diagram name="Page-1" id="SSDiFUy0dXaUOH_6wfW2">
    <mxGraphModel dx="852" dy="548" grid="1" gridSize="10" guides="1" tooltips="1" connect="1" arrows="1" fold="1" page="1" pageScale="1" pageWidth="827" pageHeight="1169" math="1" shadow="0">
      <root>
        <mxCell id="0" />
        <mxCell id="1" parent="0" />
        <mxCell id="-zv8Avf8NbXXJbsV2P7y-1" value="" style="rounded=0;whiteSpace=wrap;html=1;strokeColor=none;fillColor=none;" parent="1" vertex="1">
          <mxGeometry x="114.5" y="105.5" width="400" height="250" as="geometry" />
        </mxCell>
        <mxCell id="7rdPPtHDm0Rqt1_CYC4n-3" value="" style="ellipse;whiteSpace=wrap;html=1;aspect=fixed;fontSize=16;fillStyle=auto;fillColor=#FFFFFF;strokeWidth=1.5;" parent="1" vertex="1">
          <mxGeometry x="140" y="143" width="200" height="200" as="geometry" />
        </mxCell>
        <mxCell id="7rdPPtHDm0Rqt1_CYC4n-41" value="" style="rounded=0;whiteSpace=wrap;html=1;fontSize=16;fillColor=#d0fbf0;strokeColor=#6c8ebf;strokeWidth=0.5;spacingLeft=0;opacity=35;" parent="1" vertex="1">
          <mxGeometry x="282" y="155" width="5" height="84" as="geometry" />
        </mxCell>
        <mxCell id="7rdPPtHDm0Rqt1_CYC4n-1" value="" style="endArrow=classic;html=1;rounded=0;fontSize=12;startSize=8;endSize=8;curved=1;strokeWidth=1.5;endFill=0;" parent="1" edge="1">
          <mxGeometry width="50" height="50" relative="1" as="geometry">
            <mxPoint x="239" y="240" as="sourcePoint" />
            <mxPoint x="370" y="240" as="targetPoint" />
          </mxGeometry>
        </mxCell>
        <mxCell id="7rdPPtHDm0Rqt1_CYC4n-2" value="" style="endArrow=classic;html=1;rounded=0;fontSize=12;startSize=8;endSize=8;curved=1;strokeWidth=1.5;endFill=0;" parent="1" edge="1">
          <mxGeometry width="50" height="50" relative="1" as="geometry">
            <mxPoint x="239" y="240" as="sourcePoint" />
            <mxPoint x="239" y="116" as="targetPoint" />
          </mxGeometry>
        </mxCell>
        <mxCell id="7rdPPtHDm0Rqt1_CYC4n-8" value="" style="rounded=0;whiteSpace=wrap;html=1;fontSize=16;fillColor=#d0fbee;strokeColor=#6c8ebf;strokeWidth=0.5;spacingLeft=0;fillStyle=auto;" parent="1" vertex="1">
          <mxGeometry x="240" y="143.5" width="5" height="95.5" as="geometry" />
        </mxCell>
        <mxCell id="7rdPPtHDm0Rqt1_CYC4n-11" value="o" style="text;strokeColor=none;fillColor=none;html=1;align=center;verticalAlign=middle;whiteSpace=wrap;rounded=0;fontSize=16;" parent="1" vertex="1">
          <mxGeometry x="223" y="234" width="20" height="20" as="geometry" />
        </mxCell>
        <mxCell id="7rdPPtHDm0Rqt1_CYC4n-12" value="" style="rounded=0;whiteSpace=wrap;html=1;fontSize=16;fillColor=#d0fbf0;strokeColor=#6c8ebf;strokeWidth=0.5;spacingLeft=0;" parent="1" vertex="1">
          <mxGeometry x="246" y="144" width="5" height="95" as="geometry" />
        </mxCell>
        <mxCell id="7rdPPtHDm0Rqt1_CYC4n-13" value="" style="rounded=0;whiteSpace=wrap;html=1;fontSize=16;fillColor=#d0fbf0;strokeColor=#6c8ebf;strokeWidth=0.5;spacingLeft=0;" parent="1" vertex="1">
          <mxGeometry x="252" y="145" width="5" height="94" as="geometry" />
        </mxCell>
        <mxCell id="7rdPPtHDm0Rqt1_CYC4n-14" value="&lt;font color=&quot;#ff3333&quot;&gt;&lt;span style=&quot;font-size: 11px;&quot;&gt;&lt;span&gt;`R`&lt;/span&gt;&lt;/span&gt;&lt;/font&gt;" style="text;strokeColor=none;fillColor=none;html=1;align=center;verticalAlign=middle;whiteSpace=wrap;rounded=0;fontSize=16;fontFamily=Comic Sans MS;fontStyle=1" parent="1" vertex="1">
          <mxGeometry x="178" y="221" width="20" height="19" as="geometry" />
        </mxCell>
        <mxCell id="7rdPPtHDm0Rqt1_CYC4n-16" value="" style="rounded=0;whiteSpace=wrap;html=1;fontSize=16;fillColor=#d0fbf0;strokeColor=#6c8ebf;strokeWidth=0.5;spacingLeft=0;" parent="1" vertex="1">
          <mxGeometry x="258" y="146" width="5" height="93" as="geometry" />
        </mxCell>
        <mxCell id="7rdPPtHDm0Rqt1_CYC4n-17" value="" style="rounded=0;whiteSpace=wrap;html=1;fontSize=16;fillColor=#d0fbf0;strokeColor=#6c8ebf;strokeWidth=0.5;spacingLeft=0;" parent="1" vertex="1">
          <mxGeometry x="264" y="148" width="5" height="91" as="geometry" />
        </mxCell>
        <mxCell id="7rdPPtHDm0Rqt1_CYC4n-18" value="" style="rounded=0;whiteSpace=wrap;html=1;fontSize=16;fillColor=#d0fbf0;strokeColor=#6c8ebf;strokeWidth=0.5;spacingLeft=0;" parent="1" vertex="1">
          <mxGeometry x="270" y="150" width="5" height="89" as="geometry" />
        </mxCell>
        <mxCell id="7rdPPtHDm0Rqt1_CYC4n-21" value="" style="rounded=0;whiteSpace=wrap;html=1;fontSize=16;fillColor=#d0fbf0;strokeColor=#6c8ebf;strokeWidth=0.5;spacingLeft=0;" parent="1" vertex="1">
          <mxGeometry x="276" y="152" width="5" height="87" as="geometry" />
        </mxCell>
        <mxCell id="7rdPPtHDm0Rqt1_CYC4n-22" value="&lt;span style=&quot;font-size: 11px;&quot;&gt;&lt;font color=&quot;#cc0000&quot;&gt;&lt;b&gt;$$&lt;br&gt;(x_i, y_i)&lt;br&gt;$$&lt;/b&gt;&lt;/font&gt;&lt;br&gt;&lt;/span&gt;" style="text;strokeColor=none;fillColor=none;html=1;align=center;verticalAlign=middle;whiteSpace=wrap;rounded=0;fontSize=16;fontColor=#7EA6E0;fontFamily=Comic Sans MS;" parent="1" vertex="1">
          <mxGeometry x="276" y="136" width="39" height="12" as="geometry" />
        </mxCell>
        <mxCell id="7rdPPtHDm0Rqt1_CYC4n-23" value="" style="shape=crossbar;whiteSpace=wrap;html=1;rounded=1;fontSize=16;fillColor=#007FFF;strokeColor=#7EA6E0;" parent="1" vertex="1">
          <mxGeometry x="239" y="241" width="42" height="3" as="geometry" />
        </mxCell>
        <mxCell id="7rdPPtHDm0Rqt1_CYC4n-24" value="" style="shape=crossbar;whiteSpace=wrap;html=1;rounded=1;fontSize=16;rotation=-90;strokeColor=#7EA6E0;" parent="1" vertex="1">
          <mxGeometry x="240" y="196" width="86" height="2" as="geometry" />
        </mxCell>
        <mxCell id="7rdPPtHDm0Rqt1_CYC4n-28" value="" style="endArrow=classicThin;html=1;rounded=0;fontSize=12;startSize=8;endSize=4;curved=1;strokeColor=default;strokeWidth=1;endFill=1;exitX=0.443;exitY=0.977;exitDx=0;exitDy=0;exitPerimeter=0;" parent="1" source="7rdPPtHDm0Rqt1_CYC4n-8" edge="1">
          <mxGeometry width="50" height="50" relative="1" as="geometry">
            <mxPoint x="240" y="240" as="sourcePoint" />
            <mxPoint x="242" y="257" as="targetPoint" />
          </mxGeometry>
        </mxCell>
        <mxCell id="7rdPPtHDm0Rqt1_CYC4n-29" value="&lt;font size=&quot;1&quot;&gt;`S_1`&lt;/font&gt;" style="text;html=1;strokeColor=none;fillColor=none;align=center;verticalAlign=middle;whiteSpace=wrap;rounded=0;fontSize=16;fontFamily=Comic Sans MS;" parent="1" vertex="1">
          <mxGeometry x="230.75" y="253" width="25.5" height="10" as="geometry" />
        </mxCell>
        <mxCell id="7rdPPtHDm0Rqt1_CYC4n-30" value="" style="ellipse;whiteSpace=wrap;html=1;aspect=fixed;fontSize=16;fillColor=#000000;" parent="1" vertex="1">
          <mxGeometry x="281" y="151" width="2" height="2" as="geometry" />
        </mxCell>
        <mxCell id="7rdPPtHDm0Rqt1_CYC4n-31" value="&lt;font color=&quot;#cc0000&quot; style=&quot;&quot;&gt;&lt;span style=&quot;font-size: 11px;&quot;&gt;`y_{i}`&lt;/span&gt;&lt;/font&gt;" style="text;strokeColor=none;fillColor=none;html=1;align=center;verticalAlign=middle;whiteSpace=wrap;rounded=0;fontSize=16;fontColor=#7EA6E0;fontFamily=Comic Sans MS;fontStyle=1" parent="1" vertex="1">
          <mxGeometry x="278.5" y="186" width="19" height="15" as="geometry" />
        </mxCell>
        <mxCell id="7rdPPtHDm0Rqt1_CYC4n-32" value="&lt;span style=&quot;font-size: 11px;&quot;&gt;&lt;font color=&quot;#cc0000&quot;&gt;`x_i`&lt;/font&gt;&lt;/span&gt;" style="text;strokeColor=none;fillColor=none;html=1;align=center;verticalAlign=middle;whiteSpace=wrap;rounded=0;fontSize=16;fontColor=#7EA6E0;fontFamily=Comic Sans MS;fontStyle=1" parent="1" vertex="1">
          <mxGeometry x="255" y="237" width="19" height="15" as="geometry" />
        </mxCell>
        <mxCell id="7rdPPtHDm0Rqt1_CYC4n-34" style="edgeStyle=none;curved=1;rounded=0;orthogonalLoop=1;jettySize=auto;html=1;entryX=0.707;entryY=0.05;entryDx=0;entryDy=0;fontSize=12;startSize=8;endSize=4;dashed=1;dashPattern=1 1;strokeColor=#FF0000;entryPerimeter=0;" parent="1" target="7rdPPtHDm0Rqt1_CYC4n-3" edge="1">
          <mxGeometry relative="1" as="geometry">
            <mxPoint x="240" y="240" as="sourcePoint" />
            <mxPoint x="179" y="182" as="targetPoint" />
          </mxGeometry>
        </mxCell>
        <mxCell id="7rdPPtHDm0Rqt1_CYC4n-42" value="" style="rounded=0;whiteSpace=wrap;html=1;fontSize=16;fillColor=#d0fbf0;strokeColor=#6c8ebf;strokeWidth=0.5;spacingLeft=0;opacity=35;" parent="1" vertex="1">
          <mxGeometry x="288" y="159" width="5" height="80" as="geometry" />
        </mxCell>
        <mxCell id="7rdPPtHDm0Rqt1_CYC4n-43" value="" style="rounded=0;whiteSpace=wrap;html=1;fontSize=16;fillColor=#d0fbf0;strokeColor=#6c8ebf;strokeWidth=0.5;spacingLeft=0;opacity=35;" parent="1" vertex="1">
          <mxGeometry x="294" y="162" width="5" height="77" as="geometry" />
        </mxCell>
        <mxCell id="7rdPPtHDm0Rqt1_CYC4n-44" value="" style="rounded=0;whiteSpace=wrap;html=1;fontSize=16;fillColor=#d0fbf0;strokeColor=#6c8ebf;strokeWidth=0.5;spacingLeft=0;opacity=35;" parent="1" vertex="1">
          <mxGeometry x="300" y="167" width="5" height="72" as="geometry" />
        </mxCell>
        <mxCell id="7rdPPtHDm0Rqt1_CYC4n-45" value="" style="rounded=0;whiteSpace=wrap;html=1;fontSize=16;fillColor=#d0fbf0;strokeColor=#6c8ebf;strokeWidth=0.5;spacingLeft=0;opacity=35;" parent="1" vertex="1">
          <mxGeometry x="306" y="173" width="5" height="66" as="geometry" />
        </mxCell>
        <mxCell id="7rdPPtHDm0Rqt1_CYC4n-46" value="" style="rounded=0;whiteSpace=wrap;html=1;fontSize=16;fillColor=#d0fbf0;strokeColor=#6c8ebf;strokeWidth=0.5;spacingLeft=0;opacity=35;" parent="1" vertex="1">
          <mxGeometry x="312" y="178" width="5" height="61" as="geometry" />
        </mxCell>
        <mxCell id="7rdPPtHDm0Rqt1_CYC4n-49" value="&lt;span style=&quot;font-size: 11px;&quot;&gt;...&lt;/span&gt;" style="text;strokeColor=none;fillColor=none;html=1;align=center;verticalAlign=middle;whiteSpace=wrap;rounded=0;fontSize=16;" parent="1" vertex="1">
          <mxGeometry x="313" y="211" width="19" height="15" as="geometry" />
        </mxCell>
        <mxCell id="7rdPPtHDm0Rqt1_CYC4n-33" style="edgeStyle=none;curved=1;rounded=0;orthogonalLoop=1;jettySize=auto;html=1;fontSize=12;startSize=8;endSize=4;dashed=1;dashPattern=1 1;strokeColor=#FF0000;" parent="1" edge="1">
          <mxGeometry relative="1" as="geometry">
            <mxPoint x="240" y="240" as="sourcePoint" />
            <mxPoint x="140" y="240" as="targetPoint" />
          </mxGeometry>
        </mxCell>
        <mxCell id="7rdPPtHDm0Rqt1_CYC4n-60" value="" style="endArrow=classicThin;html=1;rounded=0;fontSize=12;startSize=8;endSize=4;curved=1;strokeColor=default;strokeWidth=1;endFill=1;exitX=0.443;exitY=0.977;exitDx=0;exitDy=0;exitPerimeter=0;" parent="1" edge="1">
          <mxGeometry width="50" height="50" relative="1" as="geometry">
            <mxPoint x="279" y="235" as="sourcePoint" />
            <mxPoint x="279" y="256" as="targetPoint" />
          </mxGeometry>
        </mxCell>
        <mxCell id="7rdPPtHDm0Rqt1_CYC4n-61" value="&lt;font size=&quot;1&quot;&gt;`S_i`&lt;/font&gt;" style="text;html=1;strokeColor=none;fillColor=none;align=center;verticalAlign=middle;whiteSpace=wrap;rounded=0;fontSize=16;fontFamily=Comic Sans MS;" parent="1" vertex="1">
          <mxGeometry x="266.5" y="251" width="25.5" height="13" as="geometry" />
        </mxCell>
        <mxCell id="7rdPPtHDm0Rqt1_CYC4n-63" value="" style="rounded=0;whiteSpace=wrap;html=1;fontSize=16;fillColor=#d0fbf0;strokeColor=#6c8ebf;strokeWidth=0.5;spacingLeft=0;opacity=35;" parent="1" vertex="1">
          <mxGeometry x="334" y="224" width="5" height="15" as="geometry" />
        </mxCell>
        <mxCell id="7rdPPtHDm0Rqt1_CYC4n-67" value="" style="endArrow=classicThin;html=1;rounded=0;fontSize=12;startSize=8;endSize=4;curved=1;strokeColor=default;strokeWidth=1;endFill=1;exitX=0.443;exitY=0.977;exitDx=0;exitDy=0;exitPerimeter=0;" parent="1" edge="1">
          <mxGeometry width="50" height="50" relative="1" as="geometry">
            <mxPoint x="337" y="235" as="sourcePoint" />
            <mxPoint x="337" y="256" as="targetPoint" />
          </mxGeometry>
        </mxCell>
        <mxCell id="7rdPPtHDm0Rqt1_CYC4n-68" value="&lt;font size=&quot;1&quot;&gt;`S_N`&lt;/font&gt;" style="text;html=1;strokeColor=none;fillColor=none;align=center;verticalAlign=middle;whiteSpace=wrap;rounded=0;fontSize=16;fontFamily=Comic Sans MS;" parent="1" vertex="1">
          <mxGeometry x="324.5" y="251" width="25.5" height="13" as="geometry" />
        </mxCell>
        <mxCell id="7rdPPtHDm0Rqt1_CYC4n-69" value="" style="shape=curlyBracket;whiteSpace=wrap;html=1;rounded=1;labelPosition=left;verticalLabelPosition=middle;align=right;verticalAlign=middle;fontSize=16;fontFamily=Comic Sans MS;" parent="1" vertex="1">
          <mxGeometry x="338" y="133" width="4" height="60" as="geometry" />
        </mxCell>
        <mxCell id="7rdPPtHDm0Rqt1_CYC4n-70" value="" style="rounded=0;whiteSpace=wrap;html=1;fontSize=16;fillColor=#d0fbf0;strokeColor=#6c8ebf;strokeWidth=0.5;spacingLeft=0;opacity=35;" parent="1" vertex="1">
          <mxGeometry x="328" y="210" width="5" height="29" as="geometry" />
        </mxCell>
        <mxCell id="7rdPPtHDm0Rqt1_CYC4n-78" value="&lt;font color=&quot;#ff3333&quot; style=&quot;font-size: 11px;&quot;&gt;&lt;b&gt;`R`&lt;/b&gt;&lt;/font&gt;" style="text;strokeColor=none;fillColor=none;html=1;align=center;verticalAlign=middle;whiteSpace=wrap;rounded=0;fontSize=16;fontFamily=Comic Sans MS;" parent="1" vertex="1">
          <mxGeometry x="246" y="177" width="20" height="19" as="geometry" />
        </mxCell>
        <mxCell id="SSDtdogoOue9SCDLMBlj-1" value="$$&lt;br&gt;x_{i}^{2} + y_{i}^2 = R^2, x_i = \frac{i R}{N}&lt;br&gt;$$" style="text;html=1;strokeColor=none;fillColor=none;align=center;verticalAlign=middle;whiteSpace=wrap;rounded=0;" parent="1" vertex="1">
          <mxGeometry x="350" y="122" width="150" height="30" as="geometry" />
        </mxCell>
        <mxCell id="WXQxgIyIR5vBJdTsgeaq-1" value="$$&lt;br&gt;N\to\infty&lt;br&gt;$$" style="text;html=1;strokeColor=none;fillColor=none;align=center;verticalAlign=middle;whiteSpace=wrap;rounded=0;" vertex="1" parent="1">
          <mxGeometry x="354" y="148" width="60" height="30" as="geometry" />
        </mxCell>
        <mxCell id="WXQxgIyIR5vBJdTsgeaq-2" value="$$&lt;br&gt;\frac{\pi R^2}{4}&amp;nbsp;\approx S_1 +&amp;nbsp;\ldots + S_{N}&lt;br&gt;&amp;nbsp;&amp;nbsp;&lt;br&gt;$$" style="text;html=1;strokeColor=none;fillColor=none;align=center;verticalAlign=middle;whiteSpace=wrap;rounded=0;" vertex="1" parent="1">
          <mxGeometry x="350" y="176.25" width="140" height="30" as="geometry" />
        </mxCell>
      </root>
    </mxGraphModel>
  </diagram>
</mxfile>
